<?xml version="1.0" encoding="UTF-8"?>
<svg width="24px" height="24px" viewBox="0 0 24 24" version="1.1" xmlns="http://www.w3.org/2000/svg">
    <g stroke="none" stroke-width="1" fill="none" fill-rule="evenodd">
        <path d="M20.64,12.2045 C20.64,11.5664 20.5827,10.9527 20.4764,10.3636 L12,10.3636 L12,14.8455 L16.8436,14.8455 C16.635,15.97 15.8582,16.9232 14.6591,17.5614 L14.6591,20.0182 L17.9564,20.0182 C19.6582,18.4255 20.64,15.9273 20.64,12.2045" fill="#4285F4"/>
        <path d="M12,21 C14.43,21 16.4673,20.1941 17.9564,20.0182 L14.6591,17.5614 C13.7414,18.1014 12.5341,18.4205 12,18.4205 C9.65591,18.4205 7.67182,16.8373 6.96409,14.71 L3.59727,14.71 L3.59727,17.2332 C5.08545,19.8691 8.35273,21 12,21" fill="#34A853"/>
        <path d="M6.96409,14.71 C6.78409,14.17 6.68182,13.5932 6.68182,13 C6.68182,12.4068 6.78409,11.83 6.96409,11.29 L6.96409,8.76682 L3.59727,8.76682 C2.52318,10.7705 2.52318,13.2295 3.59727,15.2332 L6.96409,14.71" fill="#FBBC05"/>
        <path d="M12,6.57955 C13.3214,6.57955 14.5077,7.03364 15.4405,7.92545 L18.3618,5.00409 C16.4673,3.20364 14.43,2.5 12,2.5 C8.35273,2.5 5.08545,3.63091 3.59727,6.26682 L6.96409,8.79 C7.67182,6.66273 9.65591,5.07955 12,5.07955" fill="#EA4335"/>
    </g>
</svg> 